<?xml version="1.0" standalone="no"?><!DOCTYPE svg PUBLIC "-//W3C//DTD SVG 1.1//EN" "http://www.w3.org/Graphics/SVG/1.1/DTD/svg11.dtd"><svg t="1714468191259" class="icon" viewBox="0 0 1052 1024" version="1.1" xmlns="http://www.w3.org/2000/svg" p-id="3676" width="65.75" height="64" xmlns:xlink="http://www.w3.org/1999/xlink"><path d="M912.583111 0a117.333333 117.333333 0 0 1 117.333333 117.333333v534.499556h13.056v78.222222h-13.056v169.500445a117.333333 117.333333 0 0 1-111.473777 117.191111l-5.859556 0.142222h-782.222222a117.333333 117.333333 0 0 1-117.333333-117.333333v-169.500445H0v-78.222222h13.027556V117.333333a117.333333 117.333333 0 0 1 111.502222-117.191111L130.332444 0zM262.627556 730.055111H91.249778v169.500445c0 20.337778 15.530667 37.034667 35.356444 38.940444l3.754667 0.170667h782.222222c21.617778 0 39.111111-17.521778 39.111111-39.111111v-169.500445h-171.377778l-41.329777 82.688-34.986667 21.617778H338.972444l-34.986666-21.617778-41.358222-82.688zM912.583111 78.222222h-782.222222c-21.617778 0-39.111111 17.521778-39.111111 39.111111v534.499556h195.555555l34.986667 21.617778 41.329778 82.688H679.822222l41.329778-82.659556 34.986667-21.617778 195.555555-0.028444V117.333333c0-20.337778-15.502222-37.034667-35.328-38.940444l-3.783111-0.170667zM704 443.249778v78.222222H338.972444v-78.222222H704z m0-208.583111V312.888889H338.972444V234.666667H704z" p-id="3677" fill="#bfbfbf"></path></svg>